<?xml version="1.0" encoding="UTF-8"?>
<svg id="Layer_1" data-name="Layer 1" xmlns="http://www.w3.org/2000/svg" viewBox="0 0 869.92 1120.44">
  <defs>
    <style>
      .cls-1 {
        fill: #79598f;
      }

      .cls-2 {
        fill: #9378a9;
      }

      .cls-3 {
        fill: #5c3f71;
      }

      .cls-4 {
        fill: #fff;
      }

      .cls-5 {
        fill: #47295e;
      }
    </style>
  </defs>
  <g>
    <polygon points="575.41 856.54 575.41 846.47 575.41 846.47 565.33 846.47 565.33 836.39 565.33 836.39 555.26 836.39 555.26 826.32 555.26 826.32 545.19 826.32 545.19 816.25 545.19 816.25 535.12 816.25 535.12 806.18 535.12 806.18 525.04 806.18 525.04 796.1 525.04 796.1 514.97 796.1 514.97 786.03 514.97 786.03 504.9 786.03 504.9 775.96 504.9 775.96 494.83 775.96 494.83 765.89 494.83 765.89 484.75 765.89 484.75 755.81 484.75 755.81 474.68 755.81 474.68 745.74 474.68 745.74 464.61 745.74 464.61 735.67 464.61 735.67 454.54 735.67 454.54 725.6 454.53 725.59 444.46 725.59 444.46 715.52 444.46 715.52 434.39 715.52 434.39 705.45 434.39 705.45 424.32 705.45 424.32 695.38 424.32 695.38 414.24 695.38 414.24 685.3 414.24 685.3 404.17 685.3 404.17 675.23 404.17 675.23 394.1 675.23 394.1 665.16 394.1 665.16 384.03 665.16 384.03 655.09 384.03 655.09 373.95 655.09 373.95 645.01 363.82 645.01 363.88 634.94 343.74 634.94 343.7 634.98 343.7 645.01 333.66 645.01 333.66 655.09 323.59 655.09 323.59 665.16 313.52 665.16 313.52 675.23 303.45 675.23 303.45 685.3 293.37 685.3 293.37 695.38 283.3 695.38 283.3 705.45 273.23 705.45 273.23 715.52 263.16 715.52 263.16 725.59 253.08 725.59 253.08 725.59 253.08 735.67 243.01 735.67 243.01 735.67 243.01 745.74 232.94 745.74 232.94 755.81 222.86 755.81 222.86 765.89 212.79 765.89 212.79 775.96 202.72 775.96 202.72 775.96 202.72 796.07 212.9 796.07 212.9 806.19 222.97 806.19 222.97 816.27 233.04 816.27 233.04 826.34 243.11 826.34 243.11 836.41 253.19 836.41 253.19 846.47 263.16 846.47 263.16 856.54 273.23 856.54 273.23 866.61 283.3 866.61 283.3 876.68 293.37 876.68 293.37 886.76 303.45 886.76 303.45 896.83 303.45 896.83 303.45 906.9 333.66 906.9 333.66 916.97 353.81 916.97 353.81 927.05 474.68 927.05 474.68 916.97 504.9 916.97 504.9 906.9 525.04 906.9 525.04 896.83 545.19 896.83 545.19 886.76 565.33 886.76 565.33 876.68 575.41 876.68 575.41 866.61 585.48 866.61 585.48 856.54 585.48 856.54 575.41 856.54"/>
    <g>
      <polygon class="cls-4" points="474.72 534.21 474.72 524.14 484.79 524.14 484.79 514.07 494.87 514.07 494.87 504 504.94 504 504.94 493.92 515.01 493.92 515.01 473.78 504.94 473.78 504.94 453.63 494.87 453.63 494.87 443.56 484.79 443.56 484.79 352.91 474.72 352.91 474.72 342.83 414.28 342.83 414.28 352.91 394.14 352.91 394.14 362.98 384.07 362.98 384.07 373.05 373.99 373.05 373.99 383.13 363.92 383.13 363.92 393.2 353.85 393.2 353.85 403.27 343.78 403.27 343.78 413.34 333.7 413.34 333.7 423.42 323.63 423.42 323.63 433.49 313.56 433.49 313.56 483.85 323.63 483.85 323.63 493.92 384.07 493.92 384.07 504 394.14 504 394.14 514.07 404.21 514.07 404.21 524.14 424.36 524.14 424.36 534.21 434.43 534.21 434.43 544.29 464.65 544.29 464.65 534.21 474.72 534.21"/>
      <polygon class="cls-4" points="373.99 715.61 373.99 675.31 363.92 675.31 363.92 665.24 353.85 665.24 353.85 695.46 323.63 695.46 323.63 705.53 333.7 705.53 333.7 715.61 373.99 715.61"/>
      <polygon class="cls-4" points="373.99 745.82 363.92 745.82 363.92 735.75 353.85 735.75 353.85 755.9 363.92 755.9 363.92 765.97 373.99 765.97 373.99 776.04 384.07 776.04 384.07 755.9 373.99 755.9 373.99 745.82"/>
      <path class="cls-4" d="M585.52,473.78v10.07h-30.22v10.07h-40.29v10.07h-10.07v10.07h-10.07v10.07h-10.07v10.07h-10.07v10.07h-10.07v10.07h-70.51v10.07h-20.15v10.07h-10.07v10.07h-10.07v20.15h10.07v10.07h10.07v10.07h10.07v10.07h-10.07v-10.07h-10.13l.06-10.07h-20.19v10.07h-10.03v10.07h-10.07v10.07h-10.07v10.07h-10.07v10.07h-10.07v10.07h-10.07v10.07h-10.07v10.07h-10.07v10.07h-10.07v10.07h-10.07v10.07h-10.07v10.07h-10.07v10.07h-10.07v10.07h-10.07v10.07h-10.07v10.07h-10.07v20.15h10.07v10.07h10.07v10.07h10.07v10.07h10.07v10.07h10.07v10.07h10.07v10.07h10.07v10.07h10.07v10.07h10.07v10.07h10.07v10.07h20.15v-10.07h-10.07v-10.07h-10.07v-10.07h-10.07v-10.07h-10.07v-10.07h-9.97v-10.06h-10.07v-10.07h-10.07v-10.07h-10.07v-10.07h-10.07v-10.12h-10.18v-20.11h10.07v-10.07h10.07v-10.07h10.07v-10.07h10.07v-10.07h10.07v-10.07h10.07v-10.07h10.07v-10.07h10.07v-10.07h10.07v-10.07h10.07v-10.07h10.07v-10.07h10.07v-10.07h10.07v-10.07h10.03v-10.07h20.19l-.06,10.07h10.13v10.07h10.07v10.07h10.07v10.07h10.07v10.07h10.07v10.07h10.07v10.07h10.07v10.07h10.07v10.07h10.07v10.07h10.07v10.07h10.07v10.07h10.07v10.07h10.07v10.07h10.07v10.07h10.07v10.07h10.07v10.07h10.07v10.07h10.07v10.07h10.07v10.07h10.07v10.07h10.07v10.07h20.15v-10.07h-10.07v-10.07h-10.07v-10.07h-10.07v-10.07h-10.07v-10.07h-10.07v-10.07h-10.07v-10.07h-10.07v-10.07h-10.07v-10.07h10.07v10.07h10.07v10.07h10.07v10.07h10.07v-30.22h10.07v-10.07h30.22v-10.07h10.07v50.36h-10.07v10.07h-10.07v10.07h-10.07v10.07h10.07v10.07h10.07v10.07h10.07v-10.07h10.07v-20.15h10.07v-10.07h10.07v-90.65h-10.07v-10.07h-50.36v-90.65h20.15v-10.07h10.07v-10.07h10.07v-10.07h10.07v-10.07h20.15v-10.07h10.07v-10.07h10.07v-10.07h10.07v-40.29h10.07v-30.22h-100.73ZM414.28,675.23v-10.07h-10.07v-10.07h-10.07v-10.07h-10.07v-10.07h40.29v-10.07h20.15v10.07h-10.07v20.15h-10.07v20.14h-10.07ZM424.36,685.3v-10.07h10.07v10.07h-10.07ZM434.43,695.38v-10.07h10.07v10.07h-10.07ZM444.5,705.45v-10.07h10.07v10.07h-10.07ZM454.57,715.52v-10.07h10.07v10.07h-10.07ZM484.79,745.74v-10.07h-10.07v-10.07h-10.07v-10.07h10.07v10.07h10.07v10.07h10.07v10.07h-10.07ZM494.87,755.81v-10.07h10.07v10.07h-10.07ZM515.01,765.89h-10.07v-10.07h10.07v10.07ZM545.23,544.29h-10.07v10.07h-20.15v-10.07h-10.07v-20.15h10.07v-10.07h20.15v10.07h10.07v20.14Z"/>
      <rect class="cls-4" x="303.49" y="896.83" width="10.07" height="10.07"/>
    </g>
    <g>
      <polygon class="cls-3" points="333.7 272.33 323.63 272.33 323.63 282.4 313.56 282.4 313.56 302.54 303.49 302.54 303.49 312.62 293.41 312.62 293.41 332.76 283.34 332.76 283.34 342.83 273.27 342.83 273.27 362.98 263.19 362.98 263.19 383.13 253.12 383.13 253.12 403.27 243.05 403.27 243.05 544.29 253.12 544.29 253.12 493.92 263.19 493.92 263.19 453.63 273.27 453.63 273.27 423.42 283.34 423.42 283.34 393.2 293.41 393.2 293.41 362.98 303.49 362.98 303.49 332.76 313.56 332.76 313.56 312.62 323.63 312.62 323.63 292.47 333.7 292.47 333.7 282.4 343.78 282.4 343.78 262.25 333.7 262.25 333.7 272.33"/>
      <polygon class="cls-3" points="424.36 191.75 424.36 201.82 404.21 201.82 404.21 211.89 394.14 211.89 394.14 282.4 414.28 282.4 414.28 272.33 424.36 272.33 424.36 262.25 434.43 262.25 434.43 252.18 444.5 252.18 444.5 191.75 424.36 191.75"/>
      <polygon class="cls-3" points="545.23 473.78 545.23 463.71 535.16 463.71 535.16 443.56 525.08 443.56 525.08 483.85 535.16 483.85 535.16 493.92 555.3 493.92 555.3 473.78 545.23 473.78"/>
    </g>
    <g>
      <g>
        <rect class="cls-1" x="615.74" y="816.25" width="10.07" height="20.15"/>
        <rect class="cls-1" x="625.81" y="806.18" width="10.07" height="10.07"/>
        <rect class="cls-1" x="605.66" y="836.39" width="10.07" height="10.07"/>
      </g>
      <polygon class="cls-1" points="263.19 695.38 273.27 695.38 273.27 685.3 283.34 685.3 283.34 675.23 293.41 675.23 293.41 665.16 293.41 645.01 283.34 645.01 283.34 624.87 273.27 624.87 273.27 604.72 263.19 604.72 263.19 584.58 253.12 584.58 253.12 544.29 243.05 544.29 243.05 423.42 232.98 423.42 232.98 443.56 222.9 443.56 222.9 463.71 212.83 463.71 212.83 493.92 202.76 493.92 202.76 524.14 192.69 524.14 192.69 564.43 182.61 564.43 182.61 604.72 172.54 604.72 172.54 685.3 182.61 685.3 182.61 715.52 192.69 715.52 192.69 725.59 202.76 725.59 202.76 735.67 212.83 735.67 212.83 745.74 222.9 745.74 222.9 735.67 232.98 735.67 232.98 725.59 243.05 725.59 243.05 715.52 253.12 715.52 253.12 705.45 263.19 705.45 263.19 695.38"/>
      <polygon class="cls-1" points="454.57 262.25 444.5 262.25 444.5 252.18 434.43 252.18 434.43 262.25 424.36 262.25 424.36 272.33 414.28 272.33 414.28 282.4 404.21 282.4 404.21 322.69 414.28 322.69 414.28 342.83 464.65 342.83 464.65 302.54 454.57 302.54 454.57 262.25"/>
      <polygon class="cls-1" points="515.01 413.34 504.94 413.34 504.94 403.27 494.87 403.27 494.87 393.2 484.79 393.2 484.79 443.56 494.87 443.56 494.87 453.63 504.94 453.63 504.94 463.71 515.01 463.71 515.01 473.78 525.08 473.78 525.08 433.49 515.01 433.49 515.01 413.34"/>
      <polygon class="cls-1" points="595.59 765.89 575.45 765.89 575.45 775.96 555.3 775.96 555.3 796.1 545.23 796.1 545.23 806.18 555.3 806.18 555.3 816.25 565.37 816.25 565.37 816.25 565.37 826.32 575.45 826.32 575.45 836.39 585.52 836.39 585.52 846.47 595.59 846.47 595.59 836.39 585.52 836.39 585.52 826.32 575.45 826.32 575.45 816.25 585.52 816.25 585.52 806.18 595.59 806.18 595.59 796.1 605.66 796.1 605.66 755.81 595.59 755.81 595.59 765.89"/>
      <rect class="cls-1" x="535.16" y="786.03" width="10.07" height="10.07"/>
      <polygon class="cls-1" points="656.03 695.38 656.03 715.52 645.95 715.52 645.95 725.59 635.88 725.59 635.88 796.1 645.95 796.1 645.95 775.96 656.03 775.96 656.03 745.74 666.1 745.74 666.1 695.38 656.03 695.38"/>
      <rect class="cls-1" x="595.59" y="846.47" width="10.07" height="10.07"/>
      <rect class="cls-1" x="585.52" y="856.54" width="10.07" height="10.07"/>
      <rect class="cls-1" x="575.45" y="866.61" width="10.07" height="10.07"/>
      <rect class="cls-1" x="565.37" y="876.68" width="10.07" height="10.07"/>
      <rect class="cls-1" x="545.23" y="886.76" width="20.15" height="10.07"/>
    </g>
    <g>
      <rect class="cls-5" x="464.65" y="534.21" width="10.07" height="10.07"/>
      <rect class="cls-5" x="474.72" y="524.14" width="10.07" height="10.07"/>
      <rect class="cls-5" x="484.79" y="514.07" width="10.07" height="10.07"/>
      <rect class="cls-5" x="494.87" y="504" width="10.07" height="10.07"/>
      <rect class="cls-5" x="504.94" y="493.92" width="10.07" height="10.07"/>
      <polygon class="cls-5" points="535.16 514.07 515.01 514.07 515.01 524.14 504.94 524.14 504.94 544.29 515.01 544.29 515.01 544.29 515.01 554.36 535.16 554.36 535.16 544.29 545.23 544.29 545.23 524.14 535.16 524.14 535.16 514.07"/>
      <polygon class="cls-5" points="515.01 493.92 535.16 493.92 535.16 483.85 525.08 483.85 525.08 483.85 525.08 483.85 525.08 473.78 515.01 473.78 515.01 463.71 504.94 463.71 504.94 473.78 515.01 473.78 515.01 493.92"/>
      <polygon class="cls-5" points="353.85 604.72 353.85 584.58 363.92 584.58 363.92 574.51 373.99 574.51 373.99 564.43 394.14 564.43 394.14 554.36 464.65 554.36 464.65 544.29 434.43 544.29 434.43 534.21 424.36 534.21 424.36 524.14 404.21 524.14 404.21 514.07 394.14 514.07 394.14 504 384.07 504 384.07 493.92 323.63 493.92 323.63 483.85 313.56 483.85 313.56 433.49 323.63 433.49 323.63 423.42 333.7 423.42 333.7 413.34 343.78 413.34 343.78 403.27 353.85 403.27 353.85 393.2 363.92 393.2 363.92 383.13 373.99 383.13 373.99 373.05 384.07 373.05 384.07 362.98 394.14 362.98 394.14 352.91 414.28 352.91 414.28 322.69 404.21 322.69 404.21 282.4 394.14 282.4 394.14 211.89 384.07 211.89 384.07 221.96 373.99 221.96 373.99 232.04 363.92 232.04 363.92 242.11 353.85 242.11 353.85 252.18 343.78 252.18 343.78 282.4 333.7 282.4 333.7 292.47 323.63 292.47 323.63 312.62 313.56 312.62 313.56 332.76 303.49 332.76 303.49 362.98 293.41 362.98 293.41 393.2 283.34 393.2 283.34 423.42 273.27 423.42 273.27 453.63 263.19 453.63 263.19 493.92 253.12 493.92 253.12 584.58 263.19 584.58 263.19 604.72 273.27 604.72 273.27 624.87 283.34 624.87 283.34 645.01 293.41 645.01 293.41 665.16 303.49 665.16 303.49 655.09 313.56 655.09 313.56 645.01 323.63 645.01 323.63 634.94 333.7 634.94 333.7 624.87 343.78 624.87 343.78 614.8 363.92 614.8 363.92 604.72 353.85 604.72"/>
      <rect class="cls-5" x="363.92" y="614.8" width="10.07" height="10.07"/>
      <rect class="cls-5" x="373.99" y="624.87" width="10.07" height="10.07"/>
      <polygon class="cls-5" points="424.36 675.23 424.36 655.09 434.43 655.09 434.43 634.94 444.5 634.94 444.5 624.87 424.36 624.87 424.36 634.94 384.07 634.94 384.07 645.01 394.14 645.01 394.14 655.09 404.21 655.09 404.21 665.16 414.28 665.16 414.28 675.23 424.36 675.23"/>
      <rect class="cls-5" x="424.36" y="675.23" width="10.07" height="10.07"/>
      <rect class="cls-5" x="434.43" y="685.3" width="10.07" height="10.07"/>
      <rect class="cls-5" x="444.5" y="695.38" width="10.07" height="10.07"/>
      <rect class="cls-5" x="454.57" y="705.45" width="10.07" height="10.07"/>
      <rect class="cls-5" x="464.65" y="715.52" width="10.07" height="10.07"/>
      <rect class="cls-5" x="474.72" y="725.6" width="10.07" height="10.07"/>
      <rect class="cls-5" x="484.79" y="735.67" width="10.07" height="10.07"/>
      <rect class="cls-5" x="494.86" y="745.74" width="10.07" height="10.07"/>
      <rect class="cls-5" x="504.94" y="755.81" width="10.07" height="10.07"/>
      <rect class="cls-5" x="515.01" y="765.89" width="10.07" height="10.07"/>
      <rect class="cls-5" x="525.08" y="775.96" width="10.07" height="10.07"/>
      <polygon class="cls-5" points="565.37 755.81 565.37 765.89 555.3 765.89 555.3 775.96 575.45 775.96 575.45 765.89 595.59 765.89 595.59 755.81 565.37 755.81"/>
      <rect class="cls-5" x="595.59" y="745.74" width="10.07" height="10.07"/>
      <polygon class="cls-5" points="656.03 655.09 656.03 624.87 645.95 624.87 645.95 604.72 635.88 604.72 635.88 594.65 625.81 594.65 625.81 584.58 615.74 584.58 615.74 594.65 605.66 594.65 605.66 604.72 595.59 604.72 595.59 614.8 575.45 614.8 575.45 705.45 625.81 705.45 625.81 715.52 635.88 715.52 635.88 725.59 645.95 725.59 645.95 715.52 656.03 715.52 656.03 695.38 666.1 695.38 666.1 655.09 656.03 655.09"/>
    </g>
    <g>
      <polygon class="cls-2" points="202.76 735.67 202.76 735.67 202.76 725.59 192.69 725.59 192.69 715.52 182.61 715.52 182.61 755.81 192.69 755.81 192.69 765.89 202.76 765.89 202.76 755.81 212.83 755.81 212.83 735.67 202.76 735.67"/>
      <rect class="cls-2" x="273.27" y="886.76" width="10.07" height="10.07"/>
      <rect class="cls-2" x="263.19" y="876.68" width="10.07" height="10.07"/>
      <rect class="cls-2" x="253.12" y="866.61" width="10.07" height="10.07"/>
      <rect class="cls-2" x="243.05" y="856.54" width="10.07" height="10.07"/>
      <rect class="cls-2" x="525.08" y="896.83" width="20.15" height="10.07"/>
      <rect class="cls-2" x="504.94" y="906.9" width="20.15" height="10.07"/>
      <rect class="cls-2" x="303.49" y="906.9" width="30.22" height="10.07"/>
      <rect class="cls-2" x="474.72" y="916.97" width="30.22" height="10.07"/>
      <rect class="cls-2" x="333.7" y="916.97" width="20.15" height="10.07"/>
      <rect class="cls-2" x="353.85" y="927.05" width="120.87" height="10.07"/>
      <rect class="cls-2" x="283.34" y="896.83" width="20.15" height="10.07"/>
    </g>
  </g>
  <rect class="cls-4" x="303.49" y="896.83" width="10.07" height="10.07"/>
</svg>